<?xml version="1.0" encoding="UTF-8"?>
<svg id="Layer_1" xmlns="http://www.w3.org/2000/svg" version="1.1" viewBox="0 0 960 1409.77">
  <!-- Generator: Adobe Illustrator 30.5.1, SVG Export Plug-In . SVG Version: 2.1.4 Build 3)  -->
  <defs>
    <style>
      .st0, .st1, .st2, .st3, .st4 {
        fill: none;
      }

      .st0, .st5, .st6, .st7 {
        stroke: #2c2742;
      }

      .st1 {
        stroke-dasharray: 3 2;
      }

      .st1, .st3, .st4, .st8, .st9 {
        stroke: #8b5cf6;
      }

      .st2 {
        stroke: #a78bfa;
      }

      .st5, .st10, .st11, .st12, .st13, .st14, .st15, .st16 {
        fill: #f4f2fa;
      }

      .st17, .st10, .st11, .st18, .st19, .st12, .st20, .st14, .st15, .st21, .st22, .st16, .st23 {
        isolation: isolate;
      }

      .st17, .st24, .st25 {
        fill: #a78bfa;
      }

      .st17, .st14 {
        font-size: 13px;
      }

      .st17, .st23 {
        font-family: Menlo-Regular, Menlo;
      }

      .st10 {
        font-size: 28px;
      }

      .st10, .st11, .st12, .st20, .st15 {
        font-family: HelveticaNeue-Bold, 'Helvetica Neue';
      }

      .st10, .st11, .st12, .st20, .st15, .st16 {
        font-weight: 700;
      }

      .st11 {
        font-size: 44px;
      }

      .st26 {
        fill-opacity: .03;
      }

      .st26, .st27, .st28, .st29, .st22, .st30 {
        fill: #8b5cf6;
      }

      .st27 {
        fill-opacity: .05;
      }

      .st28 {
        fill-opacity: .14;
      }

      .st29 {
        fill-opacity: .09;
      }

      .st18 {
        letter-spacing: .27em;
      }

      .st18, .st19, .st14, .st21, .st22 {
        font-family: HelveticaNeue, 'Helvetica Neue';
      }

      .st18, .st19, .st22, .st23 {
        font-size: 11px;
      }

      .st18, .st21, .st23 {
        fill: #8a86a6;
      }

      .st3 {
        stroke-dasharray: 5 3;
      }

      .st19 {
        fill: #ef4444;
      }

      .st19, .st22 {
        letter-spacing: .09em;
      }

      .st6 {
        fill: #16131f;
      }

      .st12 {
        font-size: 72px;
      }

      .st4 {
        stroke-dasharray: 4 3;
        stroke-width: .75px;
      }

      .st4, .st8 {
        stroke-opacity: .4;
      }

      .st20 {
        font-size: 36px;
        letter-spacing: -.04em;
      }

      .st20, .st31, .st7 {
        fill: #0d0b14;
      }

      .st25 {
        fill-opacity: .35;
      }

      .st15 {
        font-size: 38px;
      }

      .st21 {
        font-size: 12px;
      }

      .st8, .st9 {
        fill: #1c1828;
      }

      .st9 {
        stroke-opacity: .5;
      }

      .st16 {
        font-family: Menlo-Bold, Menlo;
        font-size: 32px;
      }
    </style>
  </defs>
  <rect class="st31" width="960" height="1400"/>
  <text class="st18" transform="translate(40 52)"><tspan x="0" y="0">01 - LOGO CONSTRUCTION</tspan></text>
  <line class="st0" x1="40" y1="62" x2="920" y2="62"/>
  <rect class="st6" x="40" y="80" width="560" height="200" rx="16" ry="16"/>
  <text class="st12" transform="translate(100 210)"><tspan x="0" y="0">tenths</tspan></text>
  <circle class="st26" cx="344" cy="210" r="60"/>
  <circle class="st27" cx="344" cy="210" r="46"/>
  <circle class="st29" cx="344" cy="210" r="34"/>
  <circle class="st28" cx="344" cy="210" r="24"/>
  <circle class="st25" cx="344" cy="210" r="17"/>
  <circle class="st24" cx="344" cy="210" r="11"/>
  <line class="st4" x1="80" y1="210" x2="580" y2="210"/>
  <text class="st23" transform="translate(590 214)"><tspan x="0" y="0">baseline</tspan></text>
  <line class="st1" x1="344" y1="148" x2="344" y2="194"/>
  <text class="st23" transform="translate(352 162)"><tspan x="0" y="0">r = 11px core @ 72pt</tspan></text>
  <text class="st21" transform="translate(100 255)"><tspan x="0" y="0">Dot centre on the baseline — grounded, anchored, deliberate</tspan></text>
  <text class="st21" transform="translate(100 273)"><tspan x="0" y="0">Vector glow: 6 concentric rings, renders clean in all tools</tspan></text>
  <rect class="st13" x="620" y="80" width="300" height="200" rx="16" ry="16"/>
  <text class="st20" transform="translate(638 188)"><tspan x="0" y="0">tenths</tspan></text>
  <circle class="st30" cx="760" cy="188" r="6"/>
  <text class="st21" transform="translate(665.76 302)"><tspan x="0" y="0">Light background — solid dot, no glow</tspan></text>
  <text class="st18" transform="translate(40 342)"><tspan x="0" y="0">02 - CLEAR SPACE</tspan></text>
  <line class="st0" x1="40" y1="352" x2="920" y2="352"/>
  <rect class="st3" x="220" y="372" width="520" height="140"/>
  <rect class="st6" x="260" y="402" width="440" height="80"/>
  <text class="st11" transform="translate(302 455)"><tspan x="0" y="0">tenths</tspan></text>
  <circle class="st26" cx="496" cy="455" r="34"/>
  <circle class="st27" cx="496" cy="455" r="26"/>
  <circle class="st29" cx="496" cy="455" r="19"/>
  <circle class="st28" cx="496" cy="455" r="14"/>
  <circle class="st25" cx="496" cy="455" r="10"/>
  <circle class="st24" cx="496" cy="455" r="7"/>
  <line class="st2" x1="220" y1="362" x2="260" y2="362"/>
  <text class="st23" transform="translate(233.69 358)"><tspan x="0" y="0">x</tspan></text>
  <line class="st2" x1="700" y1="362" x2="740" y2="362"/>
  <text class="st23" transform="translate(718.69 358)"><tspan x="0" y="0">x</tspan></text>
  <line class="st2" x1="210" y1="372" x2="210" y2="402"/>
  <text class="st23" transform="translate(194.69 390)"><tspan x="0" y="0">x</tspan></text>
  <line class="st2" x1="210" y1="482" x2="210" y2="512"/>
  <text class="st23" transform="translate(194.69 500)"><tspan x="0" y="0">x</tspan></text>
  <text class="st21" transform="translate(306.88 548)"><tspan x="0" y="0">Minimum clear space = x, where x = cap-height of the wordmark</tspan></text>
  <text class="st21" transform="translate(312.52 568)"><tspan x="0" y="0">No other elements, crops, or backgrounds may enter this zone</tspan></text>
  <text class="st18" transform="translate(40 608)"><tspan x="0" y="0">03 - MINIMUM SIZES</tspan></text>
  <line class="st0" x1="40" y1="618" x2="920" y2="618"/>
  <rect class="st6" x="40" y="636" width="420" height="130" rx="16" ry="16"/>
  <text class="st21" transform="translate(60 664)"><tspan x="0" y="0">DIGITAL</tspan></text>
  <text class="st10" transform="translate(60 706)"><tspan x="0" y="0">tenths</tspan></text>
  <circle class="st26" cx="172" cy="706" r="26"/>
  <circle class="st27" cx="172" cy="706" r="20"/>
  <circle class="st29" cx="172" cy="706" r="14"/>
  <circle class="st28" cx="172" cy="706" r="10"/>
  <circle class="st25" cx="172" cy="706" r="7"/>
  <circle class="st24" cx="172" cy="706" r="4.8"/>
  <text class="st23" transform="translate(60 736)"><tspan x="0" y="0">minimum 28px type / 200px wide logo</tspan></text>
  <text class="st23" transform="translate(60 752)"><tspan x="0" y="0">below this scale use the dot favicon only</tspan></text>
  <rect class="st6" x="500" y="636" width="420" height="130" rx="16" ry="16"/>
  <text class="st21" transform="translate(520 664)"><tspan x="0" y="0">PRINT</tspan></text>
  <text class="st10" transform="translate(520 706)"><tspan x="0" y="0">tenths</tspan></text>
  <circle class="st30" cx="632" cy="706" r="4.8"/>
  <text class="st23" transform="translate(520 736)"><tspan x="0" y="0">minimum 25mm wide</tspan></text>
  <text class="st23" transform="translate(520 752)"><tspan x="0" y="0">below 25mm use dot mark only - no glow rings</tspan></text>
  <rect class="st9" x="40" y="786" width="68" height="68" rx="17" ry="17"/>
  <circle class="st26" cx="74" cy="820" r="34"/>
  <circle class="st27" cx="74" cy="820" r="26"/>
  <circle class="st29" cx="74" cy="820" r="19"/>
  <circle class="st28" cx="74" cy="820" r="14"/>
  <circle class="st25" cx="74" cy="820" r="10"/>
  <circle class="st24" cx="74" cy="820" r="10"/>
  <text class="st21" transform="translate(53 868)"><tspan x="0" y="0">Favicon</tspan></text>
  <text class="st23" transform="translate(50.82 884)"><tspan x="0" y="0">64x64px</tspan></text>
  <rect class="st8" x="130" y="802" width="48" height="48" rx="12" ry="12"/>
  <circle class="st26" cx="154" cy="826" r="22"/>
  <circle class="st27" cx="154" cy="826" r="17"/>
  <circle class="st29" cx="154" cy="826" r="12"/>
  <circle class="st28" cx="154" cy="826" r="9"/>
  <circle class="st25" cx="154" cy="826" r="6"/>
  <circle class="st24" cx="154" cy="826" r="7"/>
  <text class="st21" transform="translate(137.55 868)"><tspan x="0" y="0">32x32</tspan></text>
  <text class="st18" transform="translate(40 926)"><tspan x="0" y="0">04 - COLOUR SYSTEM</tspan></text>
  <line class="st0" x1="40" y1="936" x2="920" y2="936"/>
  <rect class="st7" x="40" y="954" width="160" height="90" rx="12" ry="12"/>
  <text class="st14" transform="translate(55 1012)"><tspan x="0" y="0">Canvas</tspan></text>
  <text class="st17" transform="translate(55 1030)"><tspan x="0" y="0">#0D0B14</tspan></text>
  <rect class="st6" x="216" y="954" width="160" height="90" rx="12" ry="12"/>
  <text class="st14" transform="translate(231 1012)"><tspan x="0" y="0">Surface</tspan></text>
  <text class="st17" transform="translate(231 1030)"><tspan x="0" y="0">#16131F</tspan></text>
  <rect class="st5" x="392" y="954" width="160" height="90" rx="12" ry="12"/>
  <text class="st14" transform="translate(407 1012)"><tspan x="0" y="0">Ink</tspan></text>
  <text class="st17" transform="translate(407 1030)"><tspan x="0" y="0">#F4F2FA</tspan></text>
  <rect class="st30" x="568" y="954" width="180" height="90" rx="12" ry="12"/>
  <text class="st14" transform="translate(583 1012)"><tspan x="0" y="0">Signal Purple</tspan></text>
  <text class="st17" transform="translate(583 1030)"><tspan x="0" y="0">#8B5CF6</tspan></text>
  <rect class="st24" x="764" y="954" width="156" height="90" rx="12" ry="12"/>
  <text class="st14" transform="translate(779 1012)"><tspan x="0" y="0">Glow Core</tspan></text>
  <text class="st17" transform="translate(779 1030)"><tspan x="0" y="0">#A78BFA</tspan></text>
  <text class="st21" transform="translate(40 1070)"><tspan x="0" y="0">Signal Purple (#8B5CF6) is the glow halo. Glow Core (#A78BFA) is the solid inner dot.</tspan></text>
  <text class="st21" transform="translate(40 1088)"><tspan x="0" y="0">On light backgrounds use Signal Purple solid — no glow rings.</tspan></text>
  <text class="st21" transform="translate(40 1106)"><tspan x="0" y="0">Glow rings are purely decorative and may be omitted in any constrained production context.</tspan></text>
  <text class="st18" transform="translate(40 1148)"><tspan x="0" y="0">05 - TYPOGRAPHY PAIRING</tspan></text>
  <line class="st0" x1="40" y1="1158" x2="920" y2="1158"/>
  <rect class="st6" x="40" y="1176" width="420" height="160" rx="16" ry="16"/>
  <text class="st21" transform="translate(60 1204)"><tspan x="0" y="0">PRIMARY - wordmark + headings</tspan></text>
  <text class="st15" transform="translate(60 1252)"><tspan x="0" y="0">Neue Haas Grotesk</tspan></text>
  <text class="st21" transform="translate(60 1280)"><tspan x="0" y="0">or: Inter, ABC Diatype, Sohne</tspan></text>
  <text class="st21" transform="translate(60 1304)"><tspan x="0" y="0">Weight 700 wordmark / 600 headlines / -2px tracking</tspan></text>
  <rect class="st6" x="500" y="1176" width="420" height="160" rx="16" ry="16"/>
  <text class="st21" transform="translate(520 1204)"><tspan x="0" y="0">SECONDARY - data, stats, timing</tspan></text>
  <text class="st16" transform="translate(520 1252)"><tspan x="0" y="0">+0.247</tspan></text>
  <text class="st21" transform="translate(520 1280)"><tspan x="0" y="0">Berkeley Mono / JetBrains Mono</tspan></text>
  <text class="st21" transform="translate(520 1304)"><tspan x="0" y="0">Numbers, lap times, deltas, and timing data only</tspan></text>
  <text class="st18" transform="translate(40 1368)"><tspan x="0" y="0">06 - DOS AND DONTS</tspan></text>
  <line class="st0" x1="40" y1="1378" x2="920" y2="1378"/>
  <text class="st22" transform="translate(40 1404)"><tspan x="0" y="0">DO</tspan></text>
  <text class="st21" transform="translate(80 1404)"><tspan x="0" y="0">Align the dot centre to the baseline of the wordmark</tspan></text>
  <text class="st19" transform="translate(500 1404)"><tspan x="0" y="0">DONT</tspan></text>
  <text class="st21" transform="translate(556 1404)"><tspan x="0" y="0">Float the dot above the baseline</tspan></text>
</svg>